<svg width="30" height="30" viewBox="0 0 30 30" fill="none" xmlns="http://www.w3.org/2000/svg">
<path d="M27.5994 0.00165305H2.56869C2.24607 -0.0134591 1.92361 0.0351965 1.61981 0.144863C1.31601 0.254529 1.03683 0.423031 0.798226 0.640713C0.559638 0.858414 0.366311 1.12104 0.229345 1.41353C0.0923795 1.70604 0.0144372 2.02269 0 2.34535V27.4323C0.0188996 28.1075 0.295605 28.75 0.773288 29.2276C1.25097 29.7053 1.89341 29.9821 2.56869 30.001H27.5994C28.2558 29.9718 28.8747 29.6864 29.3234 29.2062C29.7721 28.726 30.0147 28.0893 29.9993 27.4323V2.34535C30.0047 2.03129 29.9459 1.71947 29.8264 1.42896C29.707 1.13848 29.5294 0.875439 29.3046 0.655975C29.08 0.43653 28.8128 0.26531 28.5196 0.152794C28.2264 0.0402777 27.9132 -0.0111529 27.5994 0.00165305ZM9.37478 25.0136H5.00613V11.6452H9.37478V25.0136ZM7.29358 9.62018C6.98873 9.63081 6.68497 9.57828 6.4014 9.46589C6.11782 9.35351 5.86053 9.18369 5.64574 8.96712C5.43092 8.75054 5.26321 8.49189 5.15315 8.2074C5.04307 7.92291 4.99303 7.61874 5.00613 7.31399C4.99265 7.00593 5.04371 6.69847 5.15604 6.41132C5.26837 6.12416 5.43947 5.86365 5.65838 5.64651C5.8773 5.42935 6.13917 5.26036 6.42722 5.15038C6.71529 5.04037 7.02316 4.99181 7.33108 5.00779C7.63593 4.99718 7.93969 5.04969 8.22326 5.16208C8.50685 5.27446 8.76413 5.44428 8.97892 5.66085C9.19374 5.87743 9.36145 6.13608 9.47151 6.42057C9.58159 6.70506 9.63163 7.00923 9.61853 7.31399C9.63201 7.62204 9.58095 7.9295 9.46863 8.21665C9.3563 8.50381 9.18519 8.76432 8.96629 8.98146C8.74737 9.19862 8.48549 9.36761 8.19744 9.47759C7.90937 9.5876 7.60151 9.63616 7.29358 9.62018ZM25.0119 25.0136H20.6245V17.7013C20.6245 15.9576 20.0058 14.7576 18.4496 14.7576C17.9662 14.7617 17.4958 14.9153 17.1032 15.1973C16.7104 15.4793 16.4145 15.8758 16.2559 16.3326C16.134 16.675 16.083 17.0385 16.1059 17.4013V25.0136H11.7935V11.6452H16.1059V13.5201C16.4893 12.8157 17.0599 12.2311 17.7547 11.8306C18.4496 11.4303 19.2416 11.2299 20.0433 11.2514C22.8745 11.2514 25.0119 13.1264 25.0119 17.1201V25.0136Z" fill="#B16064"/>
</svg>
